<svg id="Layer_1" enable-background="new 0 0 512 512" height="512" viewBox="0 0 512 512" width="512" xmlns="http://www.w3.org/2000/svg"><g><ellipse id="XMLID_87_" cx="256" cy="240" fill="#ffea60" rx="224.5" ry="230"/><circle cx="169" cy="196" fill="#efefef" r="25"/><circle cx="343" cy="196" fill="#efefef" r="25"/><path d="m256 389c-66.274 0-120 15.228-120-40s53.726-100 120-100 120 44.772 120 100-53.726 40-120 40z" fill="#8690af"/><path d="m359.153 422.122c-3.045-.234-6.024-.126-8.903.29-7.532 1.089-14.25-4.844-14.25-12.455v-60.957c0-14.63-7.371-28.829-20.755-39.981-15.266-12.723-36.86-20.019-59.245-20.019s-43.979 7.296-59.245 20.019c-13.384 11.152-20.755 25.351-20.755 39.981v60.495c0 6.747-5.328 12.218-12.067 12.557-.129.007-.259.014-.389.021-19.861 1.186-36.044 17.181-37.442 37.028-1.649 23.402 16.848 42.899 39.898 42.899 11.951 0 22.67-5.248 30-13.557 7.33 8.309 18.049 13.557 30 13.557s22.67-5.248 30-13.557c7.33 8.309 18.049 13.557 30 13.557 15.064 0 28.178-8.331 35-20.634 6.822 12.303 19.936 20.634 35 20.634 23.023 0 41.503-19.451 39.903-42.816-1.343-19.624-17.138-35.552-36.75-37.062z" fill="#89df8f"/><g><circle cx="447.365" cy="360.319" r="10"/><path d="m427.238 75.995c-32.671-35.525-76.63-61.17-123.919-71.105-15.469-3.25-31.38-4.89-47.299-4.89h-.04c-65.577 0-129.085 29.212-172.908 77.856-39.766 44.142-61.572 102.84-61.572 162.144 0 62.826 24.531 124.886 68.698 169.76 9.958 10.117 20.836 19.267 32.413 27.397-3.645 6.342-5.942 13.552-6.484 21.242-.989 14.044 3.73 27.428 13.29 37.685 9.427 10.114 22.761 15.916 36.583 15.916 10.898 0 21.411-3.569 30-10.014 8.589 6.444 19.102 10.014 30 10.014s21.411-3.569 30-10.014c8.589 6.444 19.102 10.014 30 10.014 13.263 0 25.778-5.268 35-14.302 9.222 9.034 21.737 14.302 35 14.302 13.803 0 27.124-5.788 36.549-15.88 9.557-10.233 14.291-23.594 13.331-37.62-.665-9.709-4.169-18.689-9.671-26.123 11.43-8.742 22.126-18.567 31.811-29.268 1.79-1.979 2.71-4.54 2.58-7.21s-1.3-5.119-3.28-6.92c-1.84-1.67-4.22-2.58-6.71-2.58-2.819 0-5.52 1.19-7.409 3.28-9.89 10.915-20.65 20.622-32.107 29.109-6.322-3.698-13.513-6.047-21.171-6.637-2.878-.222-13.922 2.924-13.922-2.194v-10.929c10.615-1.945 19.578-5.657 26.598-12.369 9.017-8.622 13.401-20.941 13.401-37.659 0-60.654-58.317-110-130-110s-130 49.346-130 110c0 16.718 4.384 29.037 13.402 37.659 7.022 6.713 15.98 10.433 26.598 12.378v10.458c0 1.391-2 2.495-3 2.571v.024c-10 .608-19.586 4.29-27.242 10.126-11.114-7.747-21.617-16.616-31.335-26.568-40.56-41.568-62.916-96.848-62.916-155.648s22.346-114.08 62.907-155.65c40.52-41.49 94.358-64.34 151.588-64.35 57.229.01 111.069 22.859 151.589 64.35 40.559 41.57 62.909 96.85 62.909 155.65 0 26.26-4.46 51.95-13.271 76.35-.899 2.51-.78 5.23.36 7.641 1.13 2.42 3.14 4.25 5.66 5.159 1.09.391 2.229.591 3.39.591 4.2 0 7.98-2.65 9.41-6.601 9.59-26.58 14.45-54.56 14.45-83.14.001-60.161-22.462-119.643-63.261-164.005zm-274.014 296.209c-4.861-4.648-7.224-12.238-7.224-23.204 0-49.626 49.346-90 110-90s110 40.374 110 90c0 10.966-2.363 18.556-7.224 23.204-3.106 2.969-7.462 4.979-12.776 6.321v-29.525c0-17.65-8.648-34.578-24.353-47.663-17.032-14.195-40.959-22.337-65.647-22.337s-48.615 8.142-65.646 22.336c-15.706 13.086-24.354 30.014-24.354 47.664v29.533c-5.318-1.341-9.669-3.357-12.776-6.329zm-17.218 87.601c1.052-14.927 12.994-26.857 27.994-27.749v-.017c12-.608 22-10.511 22-22.544v-60.495c0-11.609 6.093-23.08 17.157-32.3 13.497-11.249 32.758-17.7 52.843-17.7s39.346 6.451 52.844 17.701c11.063 9.219 17.156 20.69 17.156 32.299v60.957c0 6.568 2.849 12.803 7.815 17.103 4.926 4.266 11.438 6.128 17.865 5.204 2.198-.318 6.704-.263 6.705-.263 14.694 1 26.534 13.118 27.541 27.82.577 8.438-2.262 16.488-7.995 22.627-5.739 6.146-13.528 9.542-21.932 9.542-10.898 0-20.959-5.927-26.255-15.478-1.763-3.179-5.11-5.147-8.745-5.147s-6.982 1.973-8.745 5.152c-5.296 9.551-15.356 15.484-26.255 15.484-8.597 0-16.798-3.708-22.501-10.172-1.898-2.152-4.63-3.385-7.499-3.385s-5.601 1.233-7.499 3.385c-5.702 6.463-13.903 10.171-22.5 10.171s-16.798-3.708-22.501-10.172c-1.898-2.152-4.63-3.385-7.499-3.385s-5.601 1.232-7.499 3.385c-5.703 6.464-13.904 10.172-22.501 10.172-8.415 0-16.247-3.393-21.988-9.553-5.736-6.153-8.602-14.194-8.006-22.642z"/><path d="m169 231c19.299 0 35-15.701 35-35s-15.701-35-35-35-35 15.701-35 35 15.701 35 35 35zm0-50c8.271 0 15 6.729 15 15s-6.729 15-15 15-15-6.729-15-15 6.729-15 15-15z"/><path d="m308 196c0 19.299 15.701 35 35 35s35-15.701 35-35-15.701-35-35-35-35 15.701-35 35zm50 0c0 8.271-6.729 15-15 15s-15-6.729-15-15 6.729-15 15-15 15 6.729 15 15z"/><path d="m186.176 108.961c1.118-5.408-2.359-10.699-7.768-11.818-5.405-1.11-10.699 2.358-11.818 7.768-1.328 6.422-6.192 12.645-13.698 17.522-10.484 6.815-24.608 9.854-35.149 7.563-5.395-1.176-10.723 2.25-11.896 7.646s2.25 10.723 7.646 11.896c3.8.826 7.791 1.229 11.873 1.229 12.999 0 26.913-4.082 38.426-11.564 12.016-7.811 19.966-18.551 22.384-30.242z"/><path d="m398.508 149.538c5.396-1.174 8.82-6.5 7.646-11.896s-6.502-8.824-11.896-7.646c-10.541 2.29-24.665-.748-35.149-7.563-7.506-4.878-12.37-11.101-13.698-17.522-1.119-5.409-6.415-8.878-11.818-7.768-5.408 1.119-8.886 6.41-7.768 11.818 2.418 11.691 10.368 22.431 22.385 30.241 11.514 7.483 25.426 11.564 38.426 11.564 4.08.001 8.073-.402 11.872-1.228z"/><path d="m256 414c5.51 0 10-4.49 10-10v-10c0-5.51-4.49-10-10-10s-10 4.49-10 10v10c0 5.51 4.49 10 10 10z"/><circle cx="256" cy="449" r="10"/><path d="m306.009 460.002c1.645 0 3.313-.406 4.853-1.263 4.826-2.685 6.563-8.773 3.878-13.601-6.961-12.515-9.906-29.536-8.754-50.592.302-5.515-3.924-10.23-9.438-10.532-5.507-.3-10.23 3.924-10.532 9.438-1.381 25.233 2.298 45.32 11.246 61.408 1.828 3.288 5.235 5.142 8.747 5.142z"/><path d="m204.061 459.188c1.422.701 2.93 1.033 4.415 1.033 3.688 0 7.235-2.048 8.977-5.579 8.143-16.51 10.825-36.754 8.2-61.887-.574-5.492-5.476-9.477-10.985-8.907-5.493.574-9.48 5.492-8.907 10.985 2.191 20.972.09 38.118-6.245 50.963-2.444 4.953-.41 10.948 4.545 13.392z"/></g></g></svg>